<svg width="105" height="346" viewBox="0 0 105 346" fill="none" xmlns="http://www.w3.org/2000/svg">
<path d="M3.27251 344.202C3.27251 344.905 2.70286 345.475 2.00017 345.475C1.29747 345.475 0.727821 344.905 0.727821 344.202H3.27251ZM103.839 9.10032C104.336 9.5972 104.336 10.4028 103.839 10.8997L95.742 18.9968C95.2451 19.4937 94.4395 19.4937 93.9426 18.9968C93.4457 18.4999 93.4457 17.6943 93.9426 17.1975L101.14 10L93.9426 2.80254C93.4457 2.30565 93.4457 1.50005 93.9426 1.00317C94.4395 0.506289 95.2451 0.506289 95.742 1.00317L103.839 9.10032ZM0.727821 344.202V110.939H3.27251V344.202H0.727821ZM0.727821 110.939C0.727821 54.4894 46.4895 8.72766 102.939 8.72766V11.2723C47.8949 11.2723 3.27251 55.8948 3.27251 110.939H0.727821Z" fill="white"/>
<path d="M3.27251 344.202C3.27251 344.905 2.70286 345.475 2.00017 345.475C1.29747 345.475 0.727821 344.905 0.727821 344.202H3.27251ZM103.839 9.10032C104.336 9.5972 104.336 10.4028 103.839 10.8997L95.742 18.9968C95.2451 19.4937 94.4395 19.4937 93.9426 18.9968C93.4457 18.4999 93.4457 17.6943 93.9426 17.1975L101.14 10L93.9426 2.80254C93.4457 2.30565 93.4457 1.50005 93.9426 1.00317C94.4395 0.506289 95.2451 0.506289 95.742 1.00317L103.839 9.10032ZM0.727821 344.202V110.939H3.27251V344.202H0.727821ZM0.727821 110.939C0.727821 54.4894 46.4895 8.72766 102.939 8.72766V11.2723C47.8949 11.2723 3.27251 55.8948 3.27251 110.939H0.727821Z" fill="url(#paint0_linear_378_480)"/>
<defs>
<linearGradient id="paint0_linear_378_480" x1="66.4437" y1="513.761" x2="4.22324" y2="513.733" gradientUnits="userSpaceOnUse">
<stop stop-color="#A38DF5"/>
<stop offset="1" stop-color="#FFDCAF"/>
</linearGradient>
</defs>
</svg>
