<svg width="105" height="346" viewBox="0 0 105 346" fill="none" xmlns="http://www.w3.org/2000/svg">
<path d="M101.667 344.202C101.667 344.905 102.237 345.475 102.939 345.475C103.642 345.475 104.212 344.905 104.212 344.202H101.667ZM1.10032 9.10032C0.603436 9.5972 0.603436 10.4028 1.10032 10.8997L9.19746 18.9968C9.69435 19.4937 10.4999 19.4937 10.9968 18.9968C11.4937 18.4999 11.4937 17.6943 10.9968 17.1975L3.79937 10L10.9968 2.80254C11.4937 2.30565 11.4937 1.50005 10.9968 1.00317C10.4999 0.506289 9.69435 0.506289 9.19746 1.00317L1.10032 9.10032ZM104.212 344.202V110.939H101.667V344.202H104.212ZM104.212 110.939C104.212 54.4894 58.4499 8.72766 2 8.72766V11.2723C57.0445 11.2723 101.667 55.8948 101.667 110.939H104.212Z" fill="white"/>
<path d="M101.667 344.202C101.667 344.905 102.237 345.475 102.939 345.475C103.642 345.475 104.212 344.905 104.212 344.202H101.667ZM1.10032 9.10032C0.603436 9.5972 0.603436 10.4028 1.10032 10.8997L9.19746 18.9968C9.69435 19.4937 10.4999 19.4937 10.9968 18.9968C11.4937 18.4999 11.4937 17.6943 10.9968 17.1975L3.79937 10L10.9968 2.80254C11.4937 2.30565 11.4937 1.50005 10.9968 1.00317C10.4999 0.506289 9.69435 0.506289 9.19746 1.00317L1.10032 9.10032ZM104.212 344.202V110.939H101.667V344.202H104.212ZM104.212 110.939C104.212 54.4894 58.4499 8.72766 2 8.72766V11.2723C57.0445 11.2723 101.667 55.8948 101.667 110.939H104.212Z" fill="url(#paint0_linear_378_480)"/>
<defs>
<linearGradient id="paint0_linear_378_480" x1="38.4957" y1="513.761" x2="100.716" y2="513.733" gradientUnits="userSpaceOnUse">
<stop stop-color="#A38DF5"/>
<stop offset="1" stop-color="#FFDCAF"/>
</linearGradient>
</defs>
</svg>
