<svg width="118" height="88" viewBox="0 0 118 88" fill="none" xmlns="http://www.w3.org/2000/svg">
<path d="M1.8833 83.771C0.842853 83.771 -0.000597119 84.6144 -0.000597119 85.6549C-0.000597119 86.6953 0.842853 87.5388 1.8833 87.5388V83.771ZM117.38 15.3989C118.115 14.6632 118.115 13.4704 117.38 12.7347L105.391 0.745603C104.655 0.00989437 103.462 0.00989437 102.726 0.745603C101.991 1.48131 101.991 2.67413 102.726 3.40984L113.383 14.0668L102.726 24.7237C101.991 25.4594 101.991 26.6522 102.726 27.3879C103.462 28.1237 104.655 28.1237 105.391 27.3879L117.38 15.3989ZM1.8833 87.5388H44.4594V83.771H1.8833V87.5388ZM58.4002 73.5979V26.1237H54.6324V73.5979H58.4002ZM68.5733 15.9507H116.048V12.1829H68.5733V15.9507ZM58.4002 26.1237C58.4002 20.5053 62.9549 15.9507 68.5733 15.9507V12.1829C60.874 12.1829 54.6324 18.4244 54.6324 26.1237H58.4002ZM44.4594 87.5388C52.1587 87.5388 58.4002 81.2973 58.4002 73.5979H54.6324C54.6324 79.2164 50.0778 83.771 44.4594 83.771V87.5388Z" fill="white"/>
<path d="M1.8833 83.771C0.842853 83.771 -0.000597119 84.6144 -0.000597119 85.6549C-0.000597119 86.6953 0.842853 87.5388 1.8833 87.5388V83.771ZM117.38 15.3989C118.115 14.6632 118.115 13.4704 117.38 12.7347L105.391 0.745603C104.655 0.00989437 103.462 0.00989437 102.726 0.745603C101.991 1.48131 101.991 2.67413 102.726 3.40984L113.383 14.0668L102.726 24.7237C101.991 25.4594 101.991 26.6522 102.726 27.3879C103.462 28.1237 104.655 28.1237 105.391 27.3879L117.38 15.3989ZM1.8833 87.5388H44.4594V83.771H1.8833V87.5388ZM58.4002 73.5979V26.1237H54.6324V73.5979H58.4002ZM68.5733 15.9507H116.048V12.1829H68.5733V15.9507ZM58.4002 26.1237C58.4002 20.5053 62.9549 15.9507 68.5733 15.9507V12.1829C60.874 12.1829 54.6324 18.4244 54.6324 26.1237H58.4002ZM44.4594 87.5388C52.1587 87.5388 58.4002 81.2973 58.4002 73.5979H54.6324C54.6324 79.2164 50.0778 83.771 44.4594 83.771V87.5388Z" fill="url(#paint0_linear_336_502)"/>
<defs>
<linearGradient id="paint0_linear_336_502" x1="43.1606" y1="121.975" x2="113.533" y2="121.804" gradientUnits="userSpaceOnUse">
<stop stop-color="#A38DF5"/>
<stop offset="1" stop-color="#FFDCAF"/>
</linearGradient>
</defs>
</svg>
