<svg width="587" height="104" viewBox="0 0 587 104" fill="none" xmlns="http://www.w3.org/2000/svg">
<path d="M4.12244 2.41825C4.12244 1.37781 3.27899 0.534355 2.23853 0.534355C1.19806 0.534355 0.354614 1.37781 0.354614 2.41825H4.12244ZM586.072 91.1632C586.808 90.4275 586.808 89.2347 586.072 88.499L574.083 76.5099C573.347 75.7742 572.154 75.7742 571.419 76.5099C570.683 77.2457 570.683 78.4385 571.419 79.1742L582.076 89.8311L571.419 100.488C570.683 101.224 570.683 102.417 571.419 103.152C572.154 103.888 573.347 103.888 574.083 103.152L586.072 91.1632ZM89.6514 91.715H584.74V87.9472H89.6514V91.715ZM0.354614 2.41825C0.354614 51.7355 40.3342 91.715 89.6514 91.715V87.9472C42.415 87.9472 4.12244 49.6546 4.12244 2.41825H0.354614Z" fill="white"/>
<path d="M4.12244 2.41825C4.12244 1.37781 3.27899 0.534355 2.23853 0.534355C1.19806 0.534355 0.354614 1.37781 0.354614 2.41825H4.12244ZM586.072 91.1632C586.808 90.4275 586.808 89.2347 586.072 88.499L574.083 76.5099C573.347 75.7742 572.154 75.7742 571.419 76.5099C570.683 77.2457 570.683 78.4385 571.419 79.1742L582.076 89.8311L571.419 100.488C570.683 101.224 570.683 102.417 571.419 103.152C572.154 103.888 573.347 103.888 574.083 103.152L586.072 91.1632ZM89.6514 91.715H584.74V87.9472H89.6514V91.715ZM0.354614 2.41825C0.354614 51.7355 40.3342 91.715 89.6514 91.715V87.9472C42.415 87.9472 4.12244 49.6546 4.12244 2.41825H0.354614Z" fill="url(#paint0_linear_336_483)"/>
<defs>
<linearGradient id="paint0_linear_336_483" x1="374.13" y1="-41.931" x2="15.1047" y2="-38.2729" gradientUnits="userSpaceOnUse">
<stop stop-color="#A38DF5"/>
<stop offset="1" stop-color="#FFDCAF"/>
</linearGradient>
</defs>
</svg>
