<svg width="118" height="89" viewBox="0 0 118 89" fill="none" xmlns="http://www.w3.org/2000/svg">
<g id="Vector 8">
<path d="M1.8833 4.53882C0.842853 4.53882 -0.000597119 3.69537 -0.000597119 2.65492C-0.000597119 1.61447 0.842853 0.771019 1.8833 0.771019V4.53882ZM117.38 72.9109C118.115 73.6466 118.115 74.8395 117.38 75.5752L105.391 87.5642C104.655 88.2999 103.462 88.2999 102.726 87.5642C101.991 86.8285 101.991 85.6357 102.726 84.9L113.383 74.243L102.726 63.5861C101.991 62.8504 101.991 61.6576 102.726 60.9219C103.462 60.1862 104.655 60.1862 105.391 60.9219L117.38 72.9109ZM1.8833 0.771019H44.4594V4.53882H1.8833V0.771019ZM58.4002 14.7119V62.1861H54.6324V14.7119H58.4002ZM68.5733 72.3591H116.048V76.1269H68.5733V72.3591ZM58.4002 62.1861C58.4002 67.8045 62.9549 72.3591 68.5733 72.3591V76.1269C60.874 76.1269 54.6324 69.8854 54.6324 62.1861H58.4002ZM44.4594 0.771019C52.1587 0.771019 58.4002 7.01255 58.4002 14.7119H54.6324C54.6324 9.09344 50.0778 4.53882 44.4594 4.53882V0.771019Z" fill="white"/>
<path d="M1.8833 4.53882C0.842853 4.53882 -0.000597119 3.69537 -0.000597119 2.65492C-0.000597119 1.61447 0.842853 0.771019 1.8833 0.771019V4.53882ZM117.38 72.9109C118.115 73.6466 118.115 74.8395 117.38 75.5752L105.391 87.5642C104.655 88.2999 103.462 88.2999 102.726 87.5642C101.991 86.8285 101.991 85.6357 102.726 84.9L113.383 74.243L102.726 63.5861C101.991 62.8504 101.991 61.6576 102.726 60.9219C103.462 60.1862 104.655 60.1862 105.391 60.9219L117.38 72.9109ZM1.8833 0.771019H44.4594V4.53882H1.8833V0.771019ZM58.4002 14.7119V62.1861H54.6324V14.7119H58.4002ZM68.5733 72.3591H116.048V76.1269H68.5733V72.3591ZM58.4002 62.1861C58.4002 67.8045 62.9549 72.3591 68.5733 72.3591V76.1269C60.874 76.1269 54.6324 69.8854 54.6324 62.1861H58.4002ZM44.4594 0.771019C52.1587 0.771019 58.4002 7.01255 58.4002 14.7119H54.6324C54.6324 9.09344 50.0778 4.53882 44.4594 4.53882V0.771019Z" fill="url(#paint0_linear_336_503)"/>
</g>
<defs>
<linearGradient id="paint0_linear_336_503" x1="43.1606" y1="-33.6656" x2="113.533" y2="-33.494" gradientUnits="userSpaceOnUse">
<stop stop-color="#A38DF5"/>
<stop offset="1" stop-color="#FFDCAF"/>
</linearGradient>
</defs>
</svg>
