<svg width="752" height="72" viewBox="0 0 752 72" fill="none" xmlns="http://www.w3.org/2000/svg">
<path d="M751.209 17.448C751.209 18.4884 750.366 19.3319 749.325 19.3319C748.285 19.3319 747.441 18.4884 747.441 17.448H751.209ZM15.9373 70.7757C15.2016 71.5114 14.0088 71.5114 13.2731 70.7757L1.28405 58.7866C0.548347 58.0509 0.548347 56.8581 1.28405 56.1224C2.01976 55.3867 3.21258 55.3867 3.94829 56.1224L14.6052 66.7793L25.2622 56.1224C25.9979 55.3867 27.1907 55.3867 27.9264 56.1224C28.6621 56.8581 28.6621 58.0509 27.9264 58.7866L15.9373 70.7757ZM733.877 3.8839H53.0367V0.116104H733.877V3.8839ZM16.4891 40.4315V69.4435H12.7213V40.4315H16.4891ZM53.0367 3.8839C32.852 3.8839 16.4891 20.2468 16.4891 40.4315H12.7213C12.7213 18.1659 30.7711 0.116104 53.0367 0.116104V3.8839ZM747.441 17.448C747.441 9.95674 741.369 3.8839 733.877 3.8839V0.116104C743.45 0.116104 751.209 7.87584 751.209 17.448H747.441Z" fill="white"/>
<path d="M751.209 17.448C751.209 18.4884 750.366 19.3319 749.325 19.3319C748.285 19.3319 747.441 18.4884 747.441 17.448H751.209ZM15.9373 70.7757C15.2016 71.5114 14.0088 71.5114 13.2731 70.7757L1.28405 58.7866C0.548347 58.0509 0.548347 56.8581 1.28405 56.1224C2.01976 55.3867 3.21258 55.3867 3.94829 56.1224L14.6052 66.7793L25.2622 56.1224C25.9979 55.3867 27.1907 55.3867 27.9264 56.1224C28.6621 56.8581 28.6621 58.0509 27.9264 58.7866L15.9373 70.7757ZM733.877 3.8839H53.0367V0.116104H733.877V3.8839ZM16.4891 40.4315V69.4435H12.7213V40.4315H16.4891ZM53.0367 3.8839C32.852 3.8839 16.4891 20.2468 16.4891 40.4315H12.7213C12.7213 18.1659 30.7711 0.116104 53.0367 0.116104V3.8839ZM747.441 17.448C747.441 9.95674 741.369 3.8839 733.877 3.8839V0.116104C743.45 0.116104 751.209 7.87584 751.209 17.448H747.441Z" fill="url(#paint0_linear_336_501)"/>
<defs>
<linearGradient id="paint0_linear_336_501" x1="280.251" y1="-32.2178" x2="733.018" y2="-24.6761" gradientUnits="userSpaceOnUse">
<stop stop-color="#A38DF5"/>
<stop offset="1" stop-color="#FFDCAF"/>
</linearGradient>
</defs>
</svg>
