<svg width="381" height="39" viewBox="0 0 381 39" fill="none" xmlns="http://www.w3.org/2000/svg">
<path d="M376.944 2.22434C376.944 1.18389 377.788 0.340443 378.828 0.340443C379.869 0.340443 380.712 1.18389 380.712 2.22434H376.944ZM1.47013 26.1632C0.734421 25.4275 0.734421 24.2347 1.47013 23.499L13.4592 11.5099C14.1949 10.7742 15.3877 10.7742 16.1234 11.5099C16.8591 12.2457 16.8591 13.4385 16.1234 14.1742L5.46648 24.8311L16.1234 35.4881C16.8591 36.2238 16.8591 37.4166 16.1234 38.1523C15.3877 38.888 14.1949 38.888 13.4592 38.1523L1.47013 26.1632ZM356.221 26.715H2.80225V22.9472H356.221V26.715ZM380.712 2.22434C380.712 15.7502 369.747 26.715 356.221 26.715V22.9472C367.666 22.9472 376.944 13.6693 376.944 2.22434H380.712Z" fill="white"/>
<path d="M376.944 2.22434C376.944 1.18389 377.788 0.340443 378.828 0.340443C379.869 0.340443 380.712 1.18389 380.712 2.22434H376.944ZM1.47013 26.1632C0.734421 25.4275 0.734421 24.2347 1.47013 23.499L13.4592 11.5099C14.1949 10.7742 15.3877 10.7742 16.1234 11.5099C16.8591 12.2457 16.8591 13.4385 16.1234 14.1742L5.46648 24.8311L16.1234 35.4881C16.8591 36.2238 16.8591 37.4166 16.1234 38.1523C15.3877 38.888 14.1949 38.888 13.4592 38.1523L1.47013 26.1632ZM356.221 26.715H2.80225V22.9472H356.221V26.715ZM380.712 2.22434C380.712 15.7502 369.747 26.715 356.221 26.715V22.9472C367.666 22.9472 376.944 13.6693 376.944 2.22434H380.712Z" fill="url(#paint0_linear_336_482)"/>
<defs>
<linearGradient id="paint0_linear_336_482" x1="138.759" y1="-9.2453" x2="370.397" y2="-3.35412" gradientUnits="userSpaceOnUse">
<stop stop-color="#A38DF5"/>
<stop offset="1" stop-color="#FFDCAF"/>
</linearGradient>
</defs>
</svg>
