<svg width="18" height="34" viewBox="0 0 18 34" fill="none" xmlns="http://www.w3.org/2000/svg">
<path d="M10.4859 1.90726C10.4859 1.27298 9.97168 0.758802 9.3374 0.758802C8.70313 0.758802 8.18895 1.27298 8.18895 1.90726L10.4859 1.90726ZM8.52532 33.3448C8.97382 33.7933 9.70098 33.7933 10.1495 33.3448L17.4582 26.0361C17.9067 25.5876 17.9067 24.8604 17.4582 24.4119C17.0097 23.9634 16.2825 23.9634 15.834 24.4119L9.3374 30.9086L2.84076 24.4119C2.39226 23.9634 1.6651 23.9634 1.2166 24.4119C0.768097 24.8604 0.768097 25.5876 1.2166 26.0361L8.52532 33.3448ZM8.18895 1.90726L8.18895 32.5327L10.4859 32.5327L10.4859 1.90726L8.18895 1.90726Z" fill="white"/>
<path d="M10.4859 1.90726C10.4859 1.27298 9.97168 0.758802 9.3374 0.758802C8.70313 0.758802 8.18895 1.27298 8.18895 1.90726L10.4859 1.90726ZM8.52532 33.3448C8.97382 33.7933 9.70098 33.7933 10.1495 33.3448L17.4582 26.0361C17.9067 25.5876 17.9067 24.8604 17.4582 24.4119C17.0097 23.9634 16.2825 23.9634 15.834 24.4119L9.3374 30.9086L2.84076 24.4119C2.39226 23.9634 1.6651 23.9634 1.2166 24.4119C0.768097 24.8604 0.768097 25.5876 1.2166 26.0361L8.52532 33.3448ZM8.18895 1.90726L8.18895 32.5327L10.4859 32.5327L10.4859 1.90726L8.18895 1.90726Z" fill="url(#paint0_linear_378_485)"/>
<defs>
<linearGradient id="paint0_linear_378_485" x1="7.83005" y1="12.9802" x2="8.71211" y2="31.8169" gradientUnits="userSpaceOnUse">
<stop stop-color="#A38DF5"/>
<stop offset="1" stop-color="#FFDCAF"/>
</linearGradient>
</defs>
</svg>
