<svg width="40" height="29" viewBox="0 0 40 29" fill="none" xmlns="http://www.w3.org/2000/svg">
<g id="Vector 11">
<path d="M39.2762 15.987C40.0119 15.2513 40.0119 14.0585 39.2762 13.3228L27.2871 1.33374C26.5514 0.598029 25.3586 0.598029 24.6229 1.33374C23.8872 2.06945 23.8872 3.26226 24.6229 3.99797L35.2798 14.6549L24.6229 25.3118C23.8872 26.0476 23.8872 27.2404 24.6229 27.9761C25.3586 28.7118 26.5514 28.7118 27.2871 27.9761L39.2762 15.987ZM0.266113 16.5388L37.9441 16.5388V12.771L0.266113 12.771L0.266113 16.5388Z" fill="white"/>
<path d="M39.2762 15.987C40.0119 15.2513 40.0119 14.0585 39.2762 13.3228L27.2871 1.33374C26.5514 0.598029 25.3586 0.598029 24.6229 1.33374C23.8872 2.06945 23.8872 3.26226 24.6229 3.99797L35.2798 14.6549L24.6229 25.3118C23.8872 26.0476 23.8872 27.2404 24.6229 27.9761C25.3586 28.7118 26.5514 28.7118 27.2871 27.9761L39.2762 15.987ZM0.266113 16.5388L37.9441 16.5388V12.771L0.266113 12.771L0.266113 16.5388Z" fill="url(#paint0_linear_336_506)"/>
</g>
<defs>
<linearGradient id="paint0_linear_336_506" x1="13.889" y1="16.1623" x2="37.0374" y2="14.8287" gradientUnits="userSpaceOnUse">
<stop stop-color="#A38DF5"/>
<stop offset="1" stop-color="#FFDCAF"/>
</linearGradient>
</defs>
</svg>
