<svg width="38" height="20" viewBox="0 0 38 20" fill="none" xmlns="http://www.w3.org/2000/svg">
<path d="M2.08105 8.67877C1.37836 8.67877 0.808711 9.24841 0.808711 9.95111C0.808711 10.6538 1.37836 11.2235 2.08105 11.2235V8.67877ZM36.9099 10.8508C37.4068 10.3539 37.4068 9.54831 36.9099 9.05143L28.8128 0.95428C28.3159 0.457399 27.5103 0.457399 27.0134 0.95428C26.5165 1.45116 26.5165 2.25676 27.0134 2.75365L34.2109 9.95111L27.0134 17.1486C26.5165 17.6455 26.5165 18.4511 27.0134 18.9479C27.5103 19.4448 28.3159 19.4448 28.8128 18.9479L36.9099 10.8508ZM2.08105 11.2235L36.0102 11.2235V8.67877L2.08105 8.67877V11.2235Z" fill="white"/>
<path d="M2.08105 8.67877C1.37836 8.67877 0.808711 9.24841 0.808711 9.95111C0.808711 10.6538 1.37836 11.2235 2.08105 11.2235V8.67877ZM36.9099 10.8508C37.4068 10.3539 37.4068 9.54831 36.9099 9.05143L28.8128 0.95428C28.3159 0.457399 27.5103 0.457399 27.0134 0.95428C26.5165 1.45116 26.5165 2.25676 27.0134 2.75365L34.2109 9.95111L27.0134 17.1486C26.5165 17.6455 26.5165 18.4511 27.0134 18.9479C27.5103 19.4448 28.3159 19.4448 28.8128 18.9479L36.9099 10.8508ZM2.08105 11.2235L36.0102 11.2235V8.67877L2.08105 8.67877V11.2235Z" fill="url(#paint0_linear_378_472)"/>
<defs>
<linearGradient id="paint0_linear_378_472" x1="14.3485" y1="11.4585" x2="35.2068" y2="10.3764" gradientUnits="userSpaceOnUse">
<stop stop-color="#A38DF5"/>
<stop offset="1" stop-color="#FFDCAF"/>
</linearGradient>
</defs>
</svg>
